# xmcd
#
# Track frame offsets: 
#        150
#        14730
#        33150
#        47904
#        65188
#        78881
#        95871
#        114233
#        132455
#        148474
#        166821
#        183414
#
# Disc length: 2708 seconds
#
# Revision: 2
# Processed by: cddbd v1.5.2PL0 Copyright (c) Steve Scherf et al.
# Submitted via: ExactAudioCopy v0.99pb4
#
DISCID=af0a920c
DTITLE=Katie Melua - Pictures
DYEAR=2007
DGENRE=
TTITLE0=Mary Pickford (used to Eat Roses)
TTITLE1=All in my Head
TTITLE2=If the Lights Go Out
TTITLE3=What IMiss About You
TTITLE4=Spellbound
TTITLE5=What It Says On The Tin
TTITLE6=Scary Films
TTITLE7=Perfect Circle
TTITLE8=Ghost Town
TTITLE9=If You Were a Sailboat
TTITLE10=Dirty Dice
TTITLE11=In My Secret Life
EXTD=
EXTT0=
EXTT1=
EXTT2=
EXTT3=
EXTT4=
EXTT5=
EXTT6=
EXTT7=
EXTT8=
EXTT9=
EXTT10=
EXTT11=
PLAYORDER=
